<svg width="19" height="18" viewBox="0 0 19 18" fill="none" xmlns="http://www.w3.org/2000/svg">
<path d="M9.52092 5.14893C9.95181 5.14893 10.3011 5.49825 10.3011 5.92915V8.00973H12.3817C12.8126 8.00973 13.162 8.35906 13.162 8.78995C13.162 9.22084 12.8126 9.57018 12.3817 9.57018H10.3011V11.6508C10.3011 12.0817 9.95181 12.431 9.52092 12.431C9.09003 12.431 8.7407 12.0817 8.7407 11.6508V9.57018H6.66011C6.22919 9.57018 5.87988 9.22084 5.87988 8.78995C5.87988 8.35906 6.22919 8.00973 6.66011 8.00973H8.7407V5.92915C8.7407 5.49825 9.09003 5.14893 9.52092 5.14893Z" fill="white"/>
<path fill-rule="evenodd" clip-rule="evenodd" d="M1.45075 12.0198C-0.8877 6.28001 3.33498 0 9.53285 0H9.8672C14.5024 0 18.26 3.75756 18.26 8.3927C18.26 13.5535 14.0763 17.7371 8.91564 17.7371H0.78026C0.449185 17.7371 0.154147 17.5281 0.0442709 17.2158C-0.0656157 16.9035 0.0335766 16.5558 0.291716 16.3485L2.34265 14.7014C2.43233 14.6294 2.46405 14.507 2.42065 14.4005L1.45075 12.0198ZM9.53285 1.56045C4.44319 1.56045 0.975544 6.71761 2.89587 11.4311L3.86577 13.8118C4.16954 14.5574 3.94748 15.414 3.31975 15.9181L2.99783 16.1766H8.91564C13.2146 16.1766 16.6996 12.6916 16.6996 8.3927C16.6996 4.61938 13.6407 1.56045 9.8672 1.56045H9.53285Z" fill="white"/>
</svg>
