<svg width="66" height="39" viewBox="0 0 66 39" fill="none" xmlns="http://www.w3.org/2000/svg">
<path d="M1.6 7.6665C1.6 7.33513 1.33137 7.0665 1 7.0665C0.668629 7.0665 0.4 7.33513 0.4 7.6665H1.6ZM10.9556 31.2992L10.5876 31.7731L10.9556 31.2992ZM19.1965 36.5667C19.5096 36.4582 19.6754 36.1164 19.5669 35.8033L17.7982 30.7012C17.6897 30.3881 17.3479 30.2223 17.0348 30.3308C16.7217 30.4393 16.5559 30.7811 16.6644 31.0942L18.2366 35.6295L13.7013 37.2016C13.3883 37.3102 13.2224 37.652 13.331 37.965C13.4395 38.2781 13.7813 38.444 14.0944 38.3354L19.1965 36.5667ZM0.4 7.6665C0.4 11.7911 1.23086 16.4753 2.91086 20.7914C4.58965 25.1045 7.13281 29.0913 10.5876 31.7731L11.3235 30.8252C8.09088 28.3159 5.65628 24.5366 4.02914 20.3562C2.40321 16.1789 1.6 11.6423 1.6 7.6665H0.4ZM10.5876 31.7731C13.1495 33.7618 15.9086 35.1669 18.7381 36.5397L19.2619 35.46C16.4363 34.0891 13.7774 32.7301 11.3235 30.8252L10.5876 31.7731Z" fill="url(#paint0_linear_83_1061)"/>
<path d="M39.994 2.10937C39.9368 1.79211 40.1617 1.48595 40.4964 1.42555L45.9509 0.441217C46.2856 0.380813 46.6033 0.589038 46.6606 0.906299C46.7178 1.22356 46.4929 1.52972 46.1582 1.59012L41.3098 2.46508L42.1392 7.0607C42.1964 7.37796 41.9715 7.68412 41.6368 7.74452C41.3021 7.80492 40.9843 7.5967 40.9271 7.27944L39.994 2.10937ZM55.2151 23.5767L55.8289 23.5314L55.8289 23.5314L55.2151 23.5767ZM55.1051 32.8802C55.0536 33.2003 54.7397 33.4249 54.4041 33.3818C54.0684 33.3388 53.8381 33.0444 53.8897 32.7244L55.1051 32.8802ZM40.9553 1.51646C44.5402 3.86563 48.1163 7.20934 50.8656 11.034C53.6126 14.8554 55.5604 19.194 55.8289 23.5314L54.6013 23.6219C54.3497 19.5582 52.5145 15.4181 49.8463 11.7063C47.1805 7.99775 43.7092 4.75372 40.2449 2.48354L40.9553 1.51646ZM55.8289 23.5314C56.0282 26.7491 55.6018 29.795 55.1051 32.8802L53.8897 32.7244C54.3856 29.6439 54.7923 26.7054 54.6013 23.6219L55.8289 23.5314Z" fill="url(#paint1_linear_83_1061)"/>
<defs>
<linearGradient id="paint0_linear_83_1061" x1="10" y1="7.6665" x2="10" y2="35.9998" gradientUnits="userSpaceOnUse">
<stop stop-color="#F6C37F"/>
<stop offset="0.46" stop-color="#9D7444"/>
<stop offset="1" stop-color="#F6C37F"/>
</linearGradient>
<linearGradient id="paint1_linear_83_1061" x1="35.2206" y1="9.32241" x2="58.9433" y2="26.7507" gradientUnits="userSpaceOnUse">
<stop stop-color="#F6C37F"/>
<stop offset="0.46" stop-color="#9D7444"/>
<stop offset="1" stop-color="#F6C37F"/>
</linearGradient>
</defs>
</svg>
