<svg width="357" height="372" viewBox="0 0 357 372" fill="none" xmlns="http://www.w3.org/2000/svg">
<path d="M178.055 1.07135L213.933 27.9887L147.082 40.3262L120.263 44.4295L178.055 1.07135ZM115.979 46.2293L90.0273 65.6994L32.9716 105.83L39.3109 57.9594L115.979 46.2293ZM1.36061 129.447L31.5113 108.24L23.854 166.064L23.8528 166.073L20.6248 185.781L1.36061 129.447ZM21.0127 190.412L35.6234 233.137L35.6263 233.146L55.2734 296.927L7.32104 274.01L21.0127 190.412ZM68.8518 337.164L57.1143 299.06L105.351 322.113L105.366 322.12L132.615 336.186L68.8518 337.164ZM137.139 337.247L178.046 336.62H178.063L234.945 337.493L202.912 371.197L137.139 337.247ZM287.258 337.164L237.543 336.401L278.953 292.83L278.965 292.818L310.544 261.57L287.258 337.164ZM312.952 257.596L320.483 233.146L320.489 233.129L337.9 182.215L355.784 215.212L312.952 257.596ZM354.749 129.447L337.665 179.407L304.75 118.676L304.742 118.66L285.765 80.9265L354.749 129.447ZM282.73 77.4084L266.089 65.7045L266.075 65.6943L216.676 28.6327L254.673 21.6203L282.73 77.4084ZM215.163 28.9119L265.41 66.6094L265.417 66.6146L265.424 66.6196L283.806 79.5484L303.739 119.184L303.743 119.192L303.747 119.199L337.167 180.862L319.413 232.78L319.41 232.788L319.408 232.796L311.249 259.281L278.157 292.026L278.151 292.032L278.145 292.038L236.005 336.377L178.063 335.489L178.055 335.488L178.046 335.489L135.01 336.149L105.87 321.107L105.862 321.103L105.854 321.1L56.6614 297.59L36.702 232.796L36.6995 232.788L36.6967 232.78L21.3999 188.048L24.9717 166.239L24.9731 166.23L24.9743 166.221L32.7696 107.355L90.6853 66.6196L90.6924 66.6146L90.6993 66.6094L118.347 45.8671L147.262 41.4431L147.27 41.4418L147.279 41.4402L215.163 28.9119Z" stroke="url(#paint0_linear_251_10)" stroke-width="1.13122"/>
<defs>
<linearGradient id="paint0_linear_251_10" x1="178.055" y1="0.364258" x2="178.055" y2="373.353" gradientUnits="userSpaceOnUse">
<stop stop-color="#F6C37F"/>
<stop offset="0.485" stop-color="#9D7444"/>
<stop offset="1" stop-color="#F6C37F"/>
</linearGradient>
</defs>
</svg>
